<svg xmlns="http://www.w3.org/2000/svg" width="28.1" height="28.1" viewBox="0 0 28.1 28.1">
  <g id="call" transform="translate(0 0)">
    <g id="Group_6" data-name="Group 6" transform="translate(0 0)">
      <g id="Group_5" data-name="Group 5" transform="translate(0 0)">
        <path id="Path_1" data-name="Path 1" d="M27.554,22.344l-3.115-2.077L21.67,18.421a1.227,1.227,0,0,0-1.647.267l-1.714,2.2a1.22,1.22,0,0,1-1.558.323,19.952,19.952,0,0,1-5.571-4.293A20.094,20.094,0,0,1,6.886,11.35a1.22,1.22,0,0,1,.323-1.558l2.2-1.714a1.227,1.227,0,0,0,.267-1.647L7.89,3.747,5.756.546A1.227,1.227,0,0,0,4.1.175L1.644,1.651A3.006,3.006,0,0,0,.279,3.418C-.394,5.871-.53,11.283,8.144,19.957s14.085,8.537,16.539,7.864a3.006,3.006,0,0,0,1.767-1.365L27.926,24A1.227,1.227,0,0,0,27.554,22.344Z" transform="translate(0 0)" fill="#fff"/>
        <path id="Path_2" data-name="Path 2" d="M282.966,62.761A8.245,8.245,0,0,1,291.2,71a.484.484,0,0,0,.969,0,9.215,9.215,0,0,0-9.205-9.205.484.484,0,0,0,0,.969Z" transform="translate(-266.979 -58.401)" fill="#fff"/>
        <path id="Path_3" data-name="Path 3" d="M282.965,115.725a5.335,5.335,0,0,1,5.329,5.329.484.484,0,1,0,.969,0,6.305,6.305,0,0,0-6.3-6.3.484.484,0,0,0,0,.969Z" transform="translate(-266.978 -108.458)" fill="#fff"/>
        <path id="Path_4" data-name="Path 4" d="M282.966,168.692a2.425,2.425,0,0,1,2.422,2.422.484.484,0,1,0,.969,0,3.4,3.4,0,0,0-3.391-3.391.484.484,0,1,0,0,.969Z" transform="translate(-266.979 -158.518)" fill="#fff"/>
      </g>
    </g>
  </g>
</svg>
