<svg xmlns="http://www.w3.org/2000/svg" width="106" height="106" viewBox="0 0 106 106">
  <g id="Group_16" data-name="Group 16" transform="translate(-699 -201)">
    <g id="Group_2" data-name="Group 2" transform="translate(-19.182 -8.182)">
      <circle id="Ellipse_1" data-name="Ellipse 1" cx="33" cy="33" r="33" transform="translate(738.182 229.182)" fill="#09431e"/>
      <g id="Ellipse_4" data-name="Ellipse 4" transform="translate(731.182 222.182)" fill="none" stroke="#09431e" stroke-width="2">
        <circle cx="39.5" cy="39.5" r="39.5" stroke="none"/>
        <circle cx="39.5" cy="39.5" r="38.5" fill="none"/>
      </g>
      <g id="Ellipse_5" data-name="Ellipse 5" transform="translate(725.182 216.182)" fill="none" stroke="#09431e" stroke-width="2">
        <circle cx="46" cy="46" r="46" stroke="none"/>
        <circle cx="46" cy="46" r="45" fill="none"/>
      </g>
      <g id="Path_5" data-name="Path 5" transform="translate(718.182 209.182)" fill="none">
        <path d="M53,0A53,53,0,1,1,0,53,53,53,0,0,1,53,0Z" stroke="none"/>
        <path d="M 53 2 C 46.11417007446289 2 39.43535614013672 3.348152160644531 33.14910888671875 6.00701904296875 C 27.07630920410156 8.575584411621094 21.62195587158203 12.25315093994141 16.93755340576172 16.93755340576172 C 12.25315093994141 21.62195587158203 8.575584411621094 27.07630920410156 6.00701904296875 33.14910888671875 C 3.348152160644531 39.43535614013672 2 46.11417007446289 2 53 C 2 59.88582992553711 3.348152160644531 66.56465148925781 6.00701904296875 72.85089111328125 C 8.575584411621094 78.92369079589844 12.25315093994141 84.37804412841797 16.93755340576172 89.06244659423828 C 21.62195587158203 93.74684906005859 27.07630920410156 97.42441558837891 33.14910888671875 99.99298095703125 C 39.43535614013672 102.6518478393555 46.11417007446289 104 53 104 C 59.88582992553711 104 66.56465148925781 102.6518478393555 72.85089111328125 99.99298095703125 C 78.92369079589844 97.42441558837891 84.37804412841797 93.74684906005859 89.06244659423828 89.06244659423828 C 93.74684906005859 84.37804412841797 97.42441558837891 78.92369079589844 99.99298095703125 72.85089111328125 C 102.6518478393555 66.56465148925781 104 59.88582992553711 104 53 C 104 46.11417007446289 102.6518478393555 39.43535614013672 99.99298095703125 33.14910888671875 C 97.42441558837891 27.07630920410156 93.74684906005859 21.62195587158203 89.06244659423828 16.93755340576172 C 84.37804412841797 12.25315093994141 78.92369079589844 8.575584411621094 72.85089111328125 6.00701904296875 C 66.56465148925781 3.348152160644531 59.88582992553711 2 53 2 M 53 0 C 82.27108764648438 0 106 23.72890472412109 106 53 C 106 82.27108764648438 82.27108764648438 106 53 106 C 23.72890472412109 106 0 82.27108764648438 0 53 C 0 23.72890472412109 23.72890472412109 0 53 0 Z" stroke="none" fill="#09431e"/>
      </g>
    </g>
    <g id="call" transform="translate(737.5 239.5)">
      <g id="Group_6" data-name="Group 6" transform="translate(0 0)">
        <g id="Group_5" data-name="Group 5" transform="translate(0 0)">
          <path id="Path_1" data-name="Path 1" d="M27.554,22.344l-3.115-2.077L21.67,18.421a1.227,1.227,0,0,0-1.647.267l-1.714,2.2a1.22,1.22,0,0,1-1.558.323,19.952,19.952,0,0,1-5.571-4.293A20.094,20.094,0,0,1,6.886,11.35a1.22,1.22,0,0,1,.323-1.558l2.2-1.714a1.227,1.227,0,0,0,.267-1.647L7.89,3.747,5.756.546A1.227,1.227,0,0,0,4.1.175L1.644,1.651A3.006,3.006,0,0,0,.279,3.418C-.394,5.871-.53,11.283,8.144,19.957s14.085,8.537,16.539,7.864a3.006,3.006,0,0,0,1.767-1.365L27.926,24A1.227,1.227,0,0,0,27.554,22.344Z" transform="translate(0 0)" fill="#fff"/>
          <path id="Path_2" data-name="Path 2" d="M282.966,62.761A8.245,8.245,0,0,1,291.2,71a.484.484,0,0,0,.969,0,9.215,9.215,0,0,0-9.205-9.205.484.484,0,0,0,0,.969Z" transform="translate(-266.979 -58.401)" fill="#fff"/>
          <path id="Path_3" data-name="Path 3" d="M282.965,115.725a5.335,5.335,0,0,1,5.329,5.329.484.484,0,1,0,.969,0,6.305,6.305,0,0,0-6.3-6.3.484.484,0,0,0,0,.969Z" transform="translate(-266.978 -108.458)" fill="#fff"/>
          <path id="Path_4" data-name="Path 4" d="M282.966,168.692a2.425,2.425,0,0,1,2.422,2.422.484.484,0,1,0,.969,0,3.4,3.4,0,0,0-3.391-3.391.484.484,0,1,0,0,.969Z" transform="translate(-266.979 -158.518)" fill="#fff"/>
        </g>
      </g>
    </g>
  </g>
</svg>
